HIERARCHY
ROOT Hips
{
	OFFSET 0.00000 0.00000 0.00000
	CHANNELS 6 Xposition Yposition Zposition Zrotation Yrotation Xrotation 
	JOINT LHipJoint
	{
		OFFSET 0 0 0
		CHANNELS 3 Zrotation Yrotation Xrotation
		JOINT LeftHip
		{
			OFFSET 1.34019 -1.87553 0.90315
			CHANNELS 3 Zrotation Yrotation Xrotation
			JOINT LeftKnee
			{
				OFFSET 2.55316 -7.01474 0.00000
				CHANNELS 3 Zrotation Yrotation Xrotation
				JOINT LeftAnkle
				{
					OFFSET 2.64657 -7.27139 0.00000
					CHANNELS 3 Zrotation Yrotation Xrotation
					JOINT LeftToe
					{
						OFFSET 0.24207 -0.66507 2.14489
						CHANNELS 3 Zrotation Yrotation Xrotation
						End Site
						{
							OFFSET 0.00000 -0.00000 1.12451
						}
					}
				}
			}
		}
	}
	JOINT RHipJoint
	{
		OFFSET 0 0 0
		CHANNELS 3 Zrotation Yrotation Xrotation
		JOINT RightHip
		{
			OFFSET -1.28320 -1.87553 0.90315
			CHANNELS 3 Zrotation Yrotation Xrotation
			JOINT RightKnee
			{
				OFFSET -2.60484 -7.15674 0.00000
				CHANNELS 3 Zrotation Yrotation Xrotation
				JOINT RightAnkle
				{
					OFFSET -2.60296 -7.15159 0.00000
					CHANNELS 3 Zrotation Yrotation Xrotation
					JOINT RightToe
					{
						OFFSET -0.31082 -0.85398 2.28998
						CHANNELS 3 Zrotation Yrotation Xrotation
						End Site
						{
							OFFSET -0.00000 -0.00000 1.21611
						}
					}
				}
			}
		}
	}
	JOINT lowerback
	{
		OFFSET 0 0 0
		CHANNELS 3 Zrotation Yrotation Xrotation
		JOINT Chest
		{
			OFFSET -0.00160 2.05581 -0.15156
			CHANNELS 3 Zrotation Yrotation Xrotation
			JOINT Chest2
			{
				OFFSET 0.04594 2.06326 -0.01617
				CHANNELS 3 Zrotation Yrotation Xrotation
				JOINT lowerneck
				{
					OFFSET 0 0 0
					CHANNELS 3 Zrotation Yrotation Xrotation
					JOINT Neck
					{
						OFFSET 0.03753 1.73883 0.26751
						CHANNELS 3 Zrotation Yrotation Xrotation
						JOINT Head
						{
							OFFSET -0.09795 1.76129 -0.31794
							CHANNELS 3 Zrotation Yrotation Xrotation
							End Site
							{
								OFFSET -0.03611 1.79987 -0.13846
							}
						}
					}
				}
				JOINT LeftCollar
				{
					OFFSET 0 0 0
					CHANNELS 3 Zrotation Yrotation Xrotation
					JOINT LeftShoulder
					{
						OFFSET 3.30667 1.29205 -0.22445
CHANNELS 3 Zrotation Xrotation Yrotation
						JOINT LeftElbow
						{
OFFSET 0 -4.927850 -0.000000
CHANNELS 3 Zrotation Xrotation Yrotation
							JOINT LeftWrist
							{
OFFSET 0 -3.440520 0.000000
CHANNELS 3 Zrotation Xrotation Yrotation
								JOINT lhand
								{
									OFFSET 0 0 0
CHANNELS 3 Zrotation Xrotation Yrotation
									JOINT LFingers
									{
OFFSET 0 -0.654330 0.000000
CHANNELS 3 Zrotation Xrotation Yrotation
										End Site
										{
OFFSET 0 -0.527530 0.000000
										}
									}
								}
								JOINT LThumb
								{
OFFSET 0 0.000000 0.000000
CHANNELS 3 Zrotation Xrotation Yrotation
									End Site
									{
OFFSET 0 -0.535590 0.535590
									}
								}
							}
						}
					}
				}
				JOINT RightCollar
				{
					OFFSET 0 0 0
					CHANNELS 3 Zrotation Yrotation Xrotation
					JOINT RightShoulder
					{
						OFFSET -3.20032 1.49783 -0.27688
CHANNELS 3 Zrotation Xrotation Yrotation
						JOINT RightElbow
						{
OFFSET 0 -5.091810 -0.000000
CHANNELS 3 Zrotation Xrotation Yrotation
							JOINT RightWrist
							{
OFFSET 0 -3.498650 -0.000000
CHANNELS 3 Zrotation Xrotation Yrotation
								JOINT rhand
								{
									OFFSET 0 0 0
CHANNELS 3 Zrotation Xrotation Yrotation
									JOINT RFingers
									{
OFFSET 0 -0.666410 0.000000
CHANNELS 3 Zrotation Xrotation Yrotation
										End Site
										{
OFFSET 0 -0.537280 0.000000
										}
									}
								}
								JOINT RThumb
								{
OFFSET 0 0.000000 0.000000
CHANNELS 3 Zrotation Xrotation Yrotation
									End Site
									{
OFFSET 0 -0.545480 0.545480
									}
								}
							}
						}
					}
				}
			}
		}
	}
}
MOTION
Frames: 4
Frame Time: 0.008333333333333333
-0.146900 18.026400 -31.270700 -1.937700 3.247700 2.172400 0.000000 0.000000 0.000000 -18.933700 -2.205600 -7.561100 1.788500 8.410900 23.969200 0.072400 9.914000 -15.253200 0.146300 -2.464900 -6.792500 0.000000 0.000000 0.000000 22.506600 -0.167200 -6.942300 -1.899800 -8.654300 24.719700 0.227200 -15.992900 -20.284900 -0.013200 0.741000 -2.036500 -0.998700 -0.737600 2.950200 2.333400 -0.954500 -1.742800 3.022700 -0.424100 -3.393200 6.331700 -4.511900 -22.189600 -8.800900 -6.119900 27.771200 -5.473600 -3.280400 12.344000 0.000000 -0.000000 0.000000 3.029100 6.554100 -20.017400 15.031900 -24.190500 3.239000 13.212600 -7.854500 -0.887200 0.000000 0.000000 0.000000 -7.125000 0.000000 0.000000 -10.580800 30.790500 -3.729600 0.000000 -0.000000 0.000000 -4.857600 4.222900 5.950800 -13.968700 -22.690000 -2.816000 -15.540200 -2.517000 4.109600 0.000000 0.000000 0.000000 7.125000 0.000000 -0.000000 9.112100 34.135500 2.455100
-0.140842 18.026591 -31.263750 -1.955823 3.130641 2.270432 0.000000 0.000000 0.000000 -18.941998 -2.206605 -7.640342 1.790233 8.414616 23.980789 0.071450 9.989096 -15.337082 0.139426 -2.406230 -6.629638 0.000000 0.000000 0.000000 22.501960 -0.082037 -7.003846 -1.897175 -8.648501 24.701945 0.230282 -15.975474 -20.221581 -0.014150 0.768444 -2.111906 -0.819594 -0.740203 2.660267 2.232432 -0.954446 -1.718996 2.811193 -0.431635 -3.208985 6.427942 -4.388723 -21.994735 -8.705547 -5.998464 27.569546 -5.411887 -3.206416 12.237609 0.000000 0.000000 0.000000 3.272439 6.563942 -20.017786 14.917045 -24.030439 3.192110 13.202048 -7.732696 -0.922325 0.000000 0.000000 0.000000 -7.125000 0.000000 0.000000 -10.593184 30.825750 -3.725061 0.000000 0.000000 0.000000 -4.602070 4.158301 5.942459 -13.979141 -22.704916 -2.820091 -15.585001 -2.394847 3.886114 0.000000 0.000000 0.000000 7.125000 0.000000 0.000000 9.047545 33.908382 2.487702
-0.132468 18.025767 -31.254068 -2.180028 2.899906 2.257087 0.000000 0.000000 0.000000 -18.742819 -2.240109 -7.615241 1.805749 8.449197 24.087040 0.068267 10.186409 -15.549511 0.132667 -2.347372 -6.466648 0.000000 0.000000 0.000000 22.721612 0.064621 -6.873249 -1.878935 -8.609171 24.580313 0.237999 -15.973134 -20.128643 -0.014767 0.784649 -2.156314 -0.395592 -0.722286 2.597251 2.192087 -0.914472 -1.740430 2.527928 -0.421435 -3.204513 6.503660 -4.246514 -21.896741 -8.643973 -5.834949 27.563030 -5.372521 -3.116192 12.231732 0.000000 0.000000 0.000000 3.449102 6.732447 -19.944075 14.892751 -23.996468 3.182217 13.145627 -7.726416 -1.003313 0.000000 0.000000 0.000000 -7.125000 0.000000 0.000000 -10.646792 30.906413 -3.723565 0.000000 0.000000 0.000000 -4.404251 4.251854 6.091101 -14.011029 -22.750494 -2.832382 -15.636427 -2.543016 3.470898 0.000000 0.000000 0.000000 7.125000 0.000000 0.000000 8.954842 33.484648 2.554729
-0.122951 18.025325 -31.247425 -2.329514 2.759081 2.257465 0.000000 0.000000 0.000000 -18.637431 -2.369557 -7.560170 1.814999 8.469598 24.149795 0.061301 10.396584 -15.726686 0.127526 -2.302005 -6.341064 0.000000 0.000000 0.000000 22.843743 0.109976 -6.812442 -1.865151 -8.579328 24.488083 0.240650 -15.938630 -20.042410 -0.014825 0.786726 -2.162077 -0.057233 -0.714897 2.620074 2.146482 -0.890698 -1.811735 2.290626 -0.416548 -3.297759 6.598059 -4.061632 -21.808641 -8.559363 -5.624086 27.595772 -5.323883 -2.998420 12.248598 0.000000 0.000000 0.000000 3.584607 6.943146 -19.868435 14.877328 -23.974955 3.175926 13.063807 -7.712782 -1.016196 0.000000 0.000000 0.000000 -7.125000 0.000000 0.000000 -10.712569 30.917771 -3.744299 0.000000 0.000000 0.000000 -4.240147 4.378036 6.142229 -14.024426 -22.769602 -2.837550 -15.665075 -2.534518 3.325127 0.000000 0.000000 0.000000 7.125000 0.000000 0.000000 8.914225 33.336277 2.575249
